<?xml version="1.0" encoding="utf-8"?>
<!-- Generator: Adobe Illustrator 16.0.3, SVG Export Plug-In . SVG Version: 6.00 Build 0)  -->
<!DOCTYPE svg PUBLIC "-//W3C//DTD SVG 1.1//EN" "http://www.w3.org/Graphics/SVG/1.1/DTD/svg11.dtd">
<svg version="1.1" id="Layer_1" xmlns="http://www.w3.org/2000/svg" xmlns:xlink="http://www.w3.org/1999/xlink" x="0px" y="0px"
	 width="332.354px" height="207.353px" viewBox="0 0 332.354 207.353" enable-background="new 0 0 332.354 207.353"
	 xml:space="preserve">
<g>
	<polygon fill="#005192" points="144.205,112.061 145.823,112.061 149.494,118.774 149.522,118.774 149.522,112.061 
		150.712,112.061 150.712,120.397 149.195,120.397 145.41,113.535 145.387,113.535 145.387,120.397 144.205,120.397 	"/>
	<path fill="#005192" d="M153.074,115.681c0.451-0.377,1.134-0.605,1.76-0.605c1.13,0,1.509,0.527,1.509,1.582
		c-0.439-0.024-0.76-0.024-1.193-0.024c-1.155,0-2.829,0.476-2.829,2c0,1.33,0.916,1.911,2.23,1.911
		c1.029,0,1.628-0.564,1.892-0.934h0.021v0.784h1.057c-0.032-0.178-0.054-0.492-0.054-1.191v-2.519c0-1.655-0.701-2.528-2.449-2.528
		c-0.775,0-1.448,0.236-2.006,0.573L153.074,115.681 M156.342,118.031c0,0.909-0.579,1.604-1.69,1.604
		c-0.516,0-1.141-0.354-1.141-1.002c0-1.063,1.505-1.154,2.119-1.154c0.237,0,0.471,0.028,0.712,0.028V118.031z"/>
	<path fill="#005192" d="M162.608,115.21h-1.62v3.329c0,0.71,0.423,1.096,0.945,1.096c0.354,0,0.592-0.115,0.762-0.223v0.965
		c-0.245,0.078-0.597,0.167-0.954,0.167c-1.151,0-1.874-0.551-1.874-1.771v-3.563h-1.374v-0.904h1.374v-1.414l1.121-0.358v1.772
		h1.62V115.21"/>
	<path fill="#005192" d="M164.088,112.948h1.262v-1.268h-1.262V112.948z M164.156,120.397h1.123v-6.089h-1.123V120.397z"/>
	<path fill="#005192" d="M166.932,117.356c0,1.742,1.262,3.188,3.098,3.188c1.83,0,3.102-1.446,3.102-3.188
		c0-1.854-1.25-3.199-3.102-3.199C168.166,114.157,166.932,115.502,166.932,117.356 M168.115,117.356c0-1.162,0.713-2.28,1.914-2.28
		c1.197,0,1.904,1.118,1.904,2.28c0,1.081-0.584,2.279-1.904,2.279C168.711,119.635,168.115,118.437,168.115,117.356"/>
	<path fill="#005192" d="M174.633,114.308h1.088v0.969h0.021c0.336-0.699,1.148-1.12,1.99-1.12c1.578,0,2.293,0.988,2.293,2.621
		v3.617h-1.133v-3.156c0-1.412-0.299-2.103-1.289-2.163c-1.273,0-1.85,1.019-1.85,2.506v2.813h-1.121V114.308"/>
	<path fill="#005192" d="M182.275,115.681c0.445-0.377,1.137-0.605,1.76-0.605c1.125,0,1.516,0.527,1.516,1.582
		c-0.445-0.024-0.752-0.024-1.201-0.024c-1.158,0-2.834,0.476-2.834,2c0,1.33,0.932,1.911,2.236,1.911
		c1.039,0,1.629-0.564,1.893-0.934h0.018v0.784h1.057c-0.025-0.178-0.053-0.492-0.053-1.191v-2.519c0-1.655-0.697-2.528-2.443-2.528
		c-0.771,0-1.451,0.236-2.008,0.573L182.275,115.681 M185.551,118.031c0,0.909-0.588,1.604-1.695,1.604
		c-0.518,0-1.139-0.354-1.139-1.002c0-1.063,1.506-1.154,2.107-1.154c0.246,0,0.488,0.028,0.727,0.028V118.031z"/>
	<rect x="188.711" y="111.437" fill="#005192" width="1.121" height="8.96"/>
	<path fill="#005192" d="M201.471,116.942c0,2.34-1.18,3.604-3.236,3.604c-2.055,0-3.238-1.265-3.238-3.604v-4.88h1.195v4.728
		c0,1.603,0.504,2.701,2.043,2.701c1.541,0,2.045-1.099,2.045-2.701v-4.728h1.191V116.942"/>
	<path fill="#005192" d="M203.498,114.308h1.094v0.969h0.02c0.334-0.699,1.152-1.12,1.992-1.12c1.578,0,2.283,0.988,2.283,2.621
		v3.617h-1.123v-3.156c0-1.412-0.309-2.103-1.285-2.163c-1.277,0-1.857,1.019-1.857,2.506v2.813h-1.123V114.308"/>
	<path fill="#005192" d="M210.873,111.68h1.27v1.268h-1.27V111.68z M210.941,114.306h1.125v6.089h-1.125V114.306z"/>
	<polygon fill="#005192" points="216.816,120.395 215.48,120.395 213.301,114.308 214.529,114.308 216.176,119.282 216.193,119.282 
		217.877,114.308 219.008,114.308 	"/>
	<path fill="#005192" d="M224.762,119.018c-0.275,0.231-1.139,0.617-1.871,0.617c-1.063,0-2.014-0.829-2.014-2.034h4.357
		c0-1.966-0.664-3.444-2.686-3.444c-1.732,0-2.867,1.277-2.867,3.084c0,1.99,0.994,3.306,3.16,3.306c1.004,0,1.49-0.248,1.92-0.396
		V119.018 M220.877,116.762c0.086-0.782,0.541-1.687,1.645-1.687c0.965,0,1.512,0.765,1.512,1.687H220.877z"/>
	<path fill="#005192" d="M226.732,114.308h1.049v0.941h0.029c0.301-0.634,0.949-1.093,1.588-1.093c0.324,0,0.504,0.04,0.738,0.093v1
		c-0.195-0.086-0.428-0.104-0.613-0.104c-1.012,0-1.67,0.949-1.67,2.489v2.761h-1.121V114.308"/>
	<path fill="#005192" d="M230.932,119.202c0.434,0.287,1.064,0.434,1.393,0.434c0.504,0,1.148-0.224,1.148-0.875
		c0-1.114-2.641-1.012-2.641-2.723c0-1.263,0.941-1.88,2.139-1.88c0.533,0,0.963,0.116,1.41,0.233l-0.104,0.99
		c-0.252-0.157-0.908-0.307-1.182-0.307c-0.568,0-1.072,0.229-1.072,0.732c0,1.239,2.637,0.892,2.637,2.828
		c0,1.307-1.029,1.911-2.129,1.911c-0.568,0-1.146-0.069-1.672-0.329L230.932,119.202"/>
	<path fill="#005192" d="M236.096,111.68h1.262v1.268h-1.262V111.68z M236.176,114.306h1.117v6.089h-1.117V114.306z"/>
	<path fill="#005192" d="M242.574,115.21h-1.605v3.329c0,0.71,0.422,1.096,0.949,1.096c0.342,0,0.592-0.115,0.764-0.223v0.965
		c-0.256,0.078-0.59,0.167-0.955,0.167c-1.164,0-1.883-0.551-1.883-1.771v-3.563h-1.365v-0.904h1.365v-1.414l1.125-0.358v1.772
		h1.605V115.21"/>
	<path fill="#005192" d="M243.545,122.048c0.139,0.045,0.324,0.09,0.521,0.09c0.998,0,1.346-1.383,1.346-1.501
		c0-0.137-0.152-0.441-0.227-0.646l-2.068-5.684h1.234l1.639,5.044h0.021l1.664-5.044h1.135l-2.244,6.223
		c-0.404,1.161-0.861,2.517-2.332,2.517c-0.365,0-0.568-0.051-0.773-0.084L243.545,122.048"/>
	<path fill="#005192" d="M143.695,131.467c0,1.745,1.265,3.19,3.106,3.19c1.825,0,3.089-1.445,3.089-3.19
		c0-1.856-1.231-3.19-3.089-3.19C144.941,128.277,143.695,129.611,143.695,131.467 M144.896,131.467
		c0-1.159,0.695-2.288,1.905-2.288c1.196,0,1.895,1.129,1.895,2.288c0,1.089-0.576,2.288-1.895,2.288
		C145.478,133.755,144.896,132.556,144.896,131.467"/>
	<path fill="#005192" d="M152.129,129.333h-1.429v-0.913h1.429v-0.563c0-1.476,0.385-2.447,2.043-2.447
		c0.281,0,0.52,0.038,0.75,0.067l-0.048,0.904c-0.132-0.04-0.344-0.068-0.541-0.068c-0.968,0-1.082,0.62-1.082,1.452v0.654h1.611
		v0.913h-1.611v5.18h-1.122V129.333"/>
	<path fill="#005192" d="M162.93,127.43c-0.612-0.233-0.943-0.348-1.576-0.348c-0.66,0-1.438,0.236-1.438,1.109
		c0,1.604,3.571,1.237,3.571,3.982c0,1.771-1.368,2.483-3.047,2.483c-0.579,0-1.151-0.164-1.704-0.345l0.121-1.112
		c0.399,0.165,1.123,0.408,1.732,0.408c0.679,0,1.637-0.388,1.637-1.362c0-1.872-3.587-1.342-3.587-3.944
		c0-1.484,1.17-2.273,2.673-2.273c0.557,0,1.206,0.104,1.782,0.3L162.93,127.43"/>
	<path fill="#005192" d="M165.078,125.799h1.27v1.264h-1.27V125.799z M165.15,128.42h1.119v6.093h-1.119V128.42z"/>
	<path fill="#005192" d="M168.332,128.42h1.082v0.968h0.031c0.326-0.685,1.146-1.111,1.977-1.111c1.59,0,2.299,0.978,2.299,2.628
		v3.608h-1.133v-3.148c0-1.424-0.311-2.115-1.289-2.186c-1.277,0-1.85,1.028-1.85,2.515v2.819h-1.117V128.42"/>
	<path fill="#005192" d="M181.01,128.42h-1.037v0.913h-0.023c-0.334-0.657-0.928-1.057-2.012-1.057
		c-1.834,0-2.717,1.678-2.717,3.246c0,1.563,0.859,2.99,2.605,2.99c0.775,0,1.561-0.309,2.033-0.951h0.025v0.608
		c0,1.281-0.697,2.082-1.883,2.082c-0.822,0-1.338-0.162-2.203-0.541l-0.117,1.028c0.982,0.345,1.541,0.431,2.189,0.431
		c2.184,0,3.139-1.08,3.139-2.919V128.42 M178.107,133.609c-1.049,0-1.691-1.008-1.691-2.16c0-1.039,0.561-2.269,1.691-2.269
		c1.197,0,1.777,1.088,1.777,2.359C179.885,132.679,179.156,133.609,178.107,133.609"/>
	<path fill="#005192" d="M183.273,129.802c0.451-0.373,1.135-0.623,1.764-0.623c1.123,0,1.508,0.547,1.508,1.596
		c-0.439-0.025-0.756-0.025-1.199-0.025c-1.162,0-2.834,0.48-2.834,2.012c0,1.323,0.922,1.896,2.242,1.896
		c1.018,0,1.619-0.566,1.887-0.936h0.018v0.791h1.047c-0.02-0.185-0.043-0.501-0.043-1.201v-2.518c0-1.662-0.709-2.517-2.449-2.517
		c-0.775,0-1.441,0.236-2.004,0.57L183.273,129.802 M186.545,132.147c0,0.907-0.592,1.608-1.697,1.608
		c-0.523,0-1.137-0.351-1.137-0.994c0-1.075,1.502-1.176,2.109-1.176c0.248,0,0.48,0.023,0.725,0.023V132.147z"/>
	<path fill="#005192" d="M189.564,137.018h1.123v-3.344h0.018c0.352,0.56,0.955,0.981,2.039,0.981c1.828,0,2.609-1.623,2.609-3.291
		c0-1.641-0.865-3.088-2.619-3.088c-1.086,0-1.773,0.556-2.072,1.004h-0.021v-0.86h-1.076V137.018 M194.168,131.443
		c0.014,0.96-0.486,2.313-1.695,2.313c-1.258,0-1.785-1.258-1.785-2.273c0-1.136,0.586-2.302,1.799-2.302
		C193.705,129.18,194.182,130.346,194.168,131.443"/>
	<path fill="#005192" d="M196.459,131.467c0,1.745,1.26,3.19,3.098,3.19c1.834,0,3.094-1.445,3.094-3.19
		c0-1.856-1.236-3.19-3.094-3.19C197.693,128.277,196.459,129.611,196.459,131.467 M197.652,131.467
		c0-1.159,0.699-2.288,1.904-2.288c1.199,0,1.902,1.129,1.902,2.288c0,1.089-0.584,2.288-1.902,2.288
		C198.234,133.755,197.652,132.556,197.652,131.467"/>
	<path fill="#005192" d="M204.156,128.42h1.051v0.955h0.029c0.301-0.648,0.936-1.099,1.592-1.099c0.33,0,0.502,0.041,0.746,0.078
		v1.021c-0.213-0.093-0.445-0.121-0.633-0.121c-1.008,0-1.66,0.953-1.66,2.489v2.77h-1.125V128.42"/>
	<path fill="#005192" d="M213.482,133.14c-0.277,0.226-1.145,0.615-1.885,0.615c-1.055,0-2.006-0.835-2.006-2.041h4.346
		c0-1.957-0.654-3.438-2.693-3.438c-1.709,0-2.844,1.284-2.844,3.088c0,1.976,0.994,3.293,3.154,3.293c1,0,1.496-0.234,1.928-0.396
		V133.14 M209.592,130.874c0.084-0.775,0.547-1.694,1.631-1.694c0.975,0,1.527,0.775,1.527,1.694H209.592z"/>
	<path fill="#005192" d="M221.406,95.442c2.283,2.109,6.789,4.032,12.307,4.118c4.818,0.081,8.697-1.37,8.943-5.376
		c0.518-8.663-21.693-5.194-20.828-19.813c0.426-7.314,7.695-9.737,15.518-9.604c4.244,0.069,8.473,1.074,10.801,2.254l0.002,5.196
		c-2.832-1.943-6.775-3.176-10.039-3.238c-4.971-0.089-8.924,0.824-8.992,4.453c-0.125,7.583,22.275,5.764,21.416,20.264
		c-0.473,8.159-8.416,10.662-16.719,10.517c-4.775-0.075-9.447-1.04-12.398-2.547L221.406,95.442"/>
	<path fill="#005192" d="M200.398,104.253c-10.316,0-16.252-4.631-16.252-14.163V65.897h7.729V90.09
		c0,5.922,2.844,9.518,8.523,9.518c5.666,0,8.516-3.596,8.516-9.518l0.002-24.193h7.736V90.09
		C216.652,99.623,210.711,104.253,200.398,104.253"/>
	<path fill="#005192" d="M171.574,65.897v27.247l-17.724-25.32c-0.84-1.167-2.223-1.927-3.769-1.927h-5.864v37.161h5.157V75.787
		l17.696,25.242c0.832,1.213,2.236,2.029,3.83,2.029h5.828V65.897H171.574"/>
	<path fill="#005192" d="M135.34,104.513V66.054H72.693v38.479v0.304c0,1.809,0.386,11.426,8.118,23.611
		c8.442,13.323,22.376,17.432,22.965,17.604l0.218,0.051l0.212-0.051c0.578-0.172,14.559-4.28,23.021-17.604
		C135.642,115.172,135.356,104.941,135.34,104.513"/>
	<path fill="#FFFFFF" d="M125.867,127.292c-7.599,11.98-20.186,16.34-21.952,16.908c-1.736-0.568-14.292-4.928-21.878-16.908
		c-7.613-11.976-7.887-21.591-7.887-22.902v-0.154V90.623h59.599v13.587v0.163C133.749,105.71,133.47,115.316,125.867,127.292"/>
	<path fill="#6F3D24" d="M116.423,96.233h0.021H116.423z"/>
	<path fill="#F09100" d="M102.032,70.481c-0.109-0.016-2.654-0.468-5.704-0.468c-2.403,0-4.585,0.722-5.547,1.098
		c-0.954-0.376-3.136-1.098-5.544-1.098c-3.042,0-5.592,0.452-5.703,0.468l-0.34,0.062v16.216l0.501-0.107
		c0.018-0.007,2.135-0.458,5.24-0.458c2.329,0,4.756,0.651,5.706,0.986l0.14,0.056l0.143-0.056c0.959-0.335,3.372-0.986,5.706-0.986
		c3.12,0,5.227,0.451,5.238,0.458l0.513,0.107V70.545L102.032,70.481"/>
	<path fill="#FFFFFF" d="M90.39,71.859c-0.967-0.362-2.956-0.992-5.136-0.992c-2.355,0-4.43,0.28-5.205,0.398v12.262
		c0.807-0.137,2.56-0.384,4.907-0.384c2.092,0,4.196,0.487,5.434,0.865V71.859"/>
	<path fill="#FFFFFF" d="M96.354,70.868c-2.205,0-4.221,0.649-5.171,1.004v12.144c1.228-0.379,3.352-0.872,5.468-0.872
		c2.347,0,4.102,0.245,4.913,0.385V71.266C100.786,71.148,98.708,70.868,96.354,70.868"/>
	<path fill="#005192" d="M82.354,72.911c-0.296,0.083-0.466,0.363-0.379,0.619c0.099,0.264,0.419,0.404,0.724,0.327
		c0.012-0.002,1.566-0.274,2.892-0.274c1.203,0,2.558,0.54,2.57,0.551c0.295,0.091,0.623-0.039,0.732-0.293
		c0.107-0.252-0.041-0.536-0.333-0.637c-0.065-0.02-1.557-0.612-2.97-0.612C84.086,72.591,82.423,72.895,82.354,72.911"/>
	<path fill="#005192" d="M82.354,75.35c-0.296,0.078-0.466,0.358-0.379,0.616c0.099,0.261,0.419,0.404,0.724,0.329
		c0.012-0.006,1.566-0.282,2.892-0.282c1.203,0,2.558,0.542,2.57,0.553c0.295,0.099,0.623-0.042,0.732-0.29
		c0.107-0.257-0.041-0.535-0.333-0.635c-0.065-0.024-1.557-0.614-2.97-0.614C84.086,75.027,82.423,75.327,82.354,75.35"/>
	<path fill="#005192" d="M82.354,77.785c-0.296,0.076-0.466,0.361-0.379,0.614c0.099,0.26,0.419,0.41,0.724,0.335
		c0.012-0.011,1.566-0.282,2.892-0.282c1.203,0,2.558,0.54,2.57,0.548c0.295,0.094,0.623-0.028,0.732-0.286
		c0.107-0.257-0.041-0.539-0.333-0.636c-0.065-0.021-1.557-0.62-2.97-0.62C84.086,77.458,82.423,77.762,82.354,77.785"/>
	<path fill="#005192" d="M82.354,80.218c-0.296,0.08-0.466,0.357-0.379,0.614c0.099,0.262,0.419,0.412,0.724,0.329
		c0.012,0,1.566-0.283,2.892-0.283c1.203,0,2.558,0.554,2.57,0.554c0.295,0.1,0.623-0.028,0.732-0.283
		c0.107-0.262-0.041-0.543-0.333-0.638c-0.065-0.024-1.557-0.615-2.97-0.615C84.086,79.896,82.423,80.208,82.354,80.218"/>
	<path fill="#005192" d="M99.299,72.911c0.302,0.083,0.469,0.363,0.379,0.619c-0.103,0.264-0.415,0.404-0.707,0.327
		c-0.021-0.002-1.576-0.274-2.908-0.274c-1.203,0-2.554,0.54-2.563,0.551c-0.3,0.091-0.63-0.039-0.738-0.293
		c-0.11-0.252,0.037-0.536,0.327-0.637c0.071-0.02,1.563-0.612,2.974-0.612C97.57,72.591,99.23,72.895,99.299,72.911"/>
	<path fill="#005192" d="M99.299,75.35c0.302,0.078,0.469,0.358,0.379,0.616c-0.103,0.261-0.415,0.404-0.707,0.329
		c-0.021-0.006-1.576-0.282-2.908-0.282c-1.203,0-2.554,0.542-2.563,0.553c-0.3,0.099-0.63-0.042-0.738-0.29
		c-0.11-0.257,0.037-0.535,0.327-0.635c0.071-0.024,1.563-0.614,2.974-0.614C97.57,75.027,99.23,75.327,99.299,75.35"/>
	<path fill="#005192" d="M99.299,77.785c0.302,0.076,0.469,0.361,0.379,0.614c-0.103,0.26-0.415,0.41-0.707,0.335
		c-0.021-0.011-1.576-0.282-2.908-0.282c-1.203,0-2.554,0.54-2.563,0.548c-0.3,0.094-0.63-0.028-0.738-0.286
		c-0.11-0.257,0.037-0.539,0.327-0.636c0.071-0.021,1.563-0.62,2.974-0.62C97.57,77.458,99.23,77.762,99.299,77.785"/>
	<path fill="#005192" d="M99.299,80.218c0.302,0.08,0.469,0.357,0.379,0.614c-0.103,0.262-0.415,0.412-0.707,0.329
		c-0.021,0-1.576-0.283-2.908-0.283c-1.203,0-2.554,0.554-2.563,0.554c-0.3,0.1-0.63-0.028-0.738-0.283
		c-0.11-0.262,0.037-0.543,0.327-0.638c0.071-0.024,1.563-0.615,2.974-0.615C97.57,79.896,99.23,80.208,99.299,80.218"/>
	<path fill="#005192" d="M131.053,101.691c-0.31-1.116-0.879-1.615-1.63-2.011c-2.079-1.105-4.789-0.336-7.166,0.474
		c-1.799,0.615-2.34,0.798-4.376,1.109c-1.53,0.23-6.678,0.903-8.297-0.44c-0.231-0.187-0.47-0.616-0.49-0.887
		c-0.048-0.567,0.207-1.229,0.396-1.44c0.417-0.46,1.374-0.677,2.931-0.677l3.975,0.07c0.254,0.327,0.892,0.838,2.504,1.175
		c2.577,0.561,5.402-0.334,5.402-0.334s-0.465-0.095-0.858-0.392c-0.346-0.251-0.309-0.635-0.309-0.635s0.563,0.268,1.386,0.246
		c1.026-0.031,1.508-0.521,2.465-0.761c0.96-0.251,2.03-0.047,2.03-0.047s-0.972-1.033-1.928-1.22
		c-0.968-0.177-2.167,0.067-2.167,0.067s0.3-0.135,0.669-0.464c0.277-0.258,0.338-0.692,0.338-0.692s-1.146,0.446-2.314,0.381
		c-1.166-0.063-1.082-0.479-3.341-0.537c-1.709-0.048-3.129,0.97-3.717,1.46c-1.83-0.115-3.272-0.182-4.128-0.182
		c-2.332,0-3.668,0.38-4.499,1.279c-0.679,0.749-0.988,1.707-0.883,2.867c0.077,0.911,0.484,1.668,1.2,2.26
		c2.176,1.791,8.01,1.244,10.078,0.885c2.306-0.409,2.994-0.588,4.338-1.032l0.079-0.026c1.032-0.351,4.192-1.4,5.509-0.702
		c0.268,0.141,0.447,0.413,0.567,0.815c0.042,0.178,0.076,0.347,0.076,0.499c0,0.282-0.085,0.503-0.262,0.713
		c-1.2,1.477-5.728,1.719-7.695,1.825c-0.214-0.049-1.534-0.344-3.274-0.349c-1.168-0.012-2.157,0.062-3.184,0.146
		c-1.893,0.142-3.838,0.286-7.088-0.084c-1.508-0.173-2.919-0.45-3.983-0.762c-0.05-0.408-0.236-0.791-0.64-1.232
		c0.779,0.246,1.789-0.61,2.072-1.041c0-0.037-1.378-0.406-1.462-1.304c-0.005-0.022,0.983,0.083,1.383-1.259
		c-0.975-0.528-0.671-0.719-1.142-1.384c-0.404-0.586-1.01-0.871-1.75-0.853c0.298-0.041,0.321,0,0.661-0.163
		c0.413-0.217,0.717-0.807,1.133-0.775c-0.846-1.332-3.133-1.502-4.088-1.229c0.252-0.294,0.616-0.639,0.624-1.052
		c-1.261,0.351-2.497-0.307-3.764-0.069c-1.063,0.196-1.662,0.622-1.981,1.631H94.39c-0.331-1.009-0.927-1.435-1.98-1.631
		c-1.271-0.237-2.518,0.42-3.781,0.069c0.005,0.413,0.388,0.758,0.625,1.052c-0.943-0.273-3.226-0.104-4.085,1.229
		c0.429-0.031,0.718,0.559,1.142,0.775c0.378,0.186,0.446,0.146,0.652,0.163c-0.736-0.019-1.331,0.267-1.748,0.853
		c-0.472,0.665-0.16,0.855-1.144,1.384c0.402,1.342,1.391,1.236,1.391,1.259c-0.085,0.897-1.465,1.267-1.468,1.304
		c0.285,0.431,1.298,1.287,2.071,1.041c-0.637,0.704-0.744,1.252-0.596,1.971c-0.996-0.75-1.966-1.579-2.489-2.268
		c-0.131-0.183-0.52-1.466-0.774-2.31l-0.214-0.691l-0.098-0.374c-0.316-1.138-0.604-2.097-1.136-2.225
		c-0.279-0.066-0.538-0.088-0.769-0.066c-0.179-0.278-0.434-0.574-0.726-0.668c-0.6-0.182-0.892-0.047-0.892-0.047
		s0.487,0.345,0.648,0.702c0.052,0.104,0.072,0.185,0.096,0.262c-0.112,0.067-0.204,0.133-0.294,0.199l-0.044,0.034
		c-0.062,0.053-0.149,0.123-0.236,0.204c-0.038-0.016-0.076-0.028-0.122-0.036c-0.627-0.079-0.893,0.108-0.893,0.108
		s0.331,0.162,0.588,0.395c-0.214,0.301-0.394,0.692-0.394,1.168c0,0.048,0.008,0.098,0.008,0.146
		c-0.593,0.047-0.816,0.263-0.816,0.263s0.578,0.158,0.855,0.427c0.033,0.04,0.06,0.068,0.09,0.1
		c-0.03,0.03-0.049,0.052-0.049,0.052c-0.125,0.198-0.177,0.407-0.177,0.627c0,0.522,0.292,1.087,0.701,1.45
		c0,0,1.063,0.891,1.168,0.97c0.429,0.947,0.888,1.777,1.198,2.133c0.091,0.118,0.749,1.25,1.441,2.441
		c0.099,0.155,0.196,0.316,0.281,0.484c0.157,0.733,0.32,1.644,0.396,2.355c0.139,1.289,0.008,2.732,0.008,2.732
		s0.83-0.05,1.219-0.582c0-0.014,0.306,0.887,0.268,1.906c-0.039,0.755-0.243,1.805-0.243,1.805s0.806-0.431,1.42-0.976
		c0.307-0.278,0.628-0.719,0.813-1.019c0.679,0.434,2.602-0.243,3.56-0.637c0.189,0.379,0.451,0.804,0.796,1.276
		c0.145-0.574,0.771-0.857,1.049-1.321h0.263c0.029,0.634-0.15,1.221,0.447,2.398c0.173,0.334,0.997,1.57,1.603,2.209
		c-0.229,1.061-0.665,3.024-1.11,4.611c-0.514,1.826-0.928,2.729-1.169,3.156c-0.683,0.04-1.943,0.081-2.337,0.06
		c-0.956-0.039-1.666,0.152-2.102,0.6c-0.038,0.029-0.057,0.069-0.083,0.096c-0.337,0.05-0.718,0.156-0.931,0.378
		c-0.413,0.471-0.423,0.783-0.423,0.783s0.53-0.29,0.917-0.29h0.085v0.086c0,0.09,0.057,0.241,0.146,0.422
		c-0.067,0.052-0.116,0.104-0.172,0.156c-0.389,0.501-0.359,0.82-0.359,0.82s0.485-0.319,0.891-0.354
		c0.114,0.195,0.247,0.395,0.396,0.59c-0.013,0.019-0.031,0.039-0.052,0.066c-0.336,0.522-0.296,0.839-0.296,0.839
		s0.389-0.303,0.752-0.393c0.122,0.127,0.254,0.262,0.366,0.368c0.577,0.504,2.004,0.17,3.808-0.305l1.124-0.273
		c0.787-0.148,1.282-0.462,1.651-1.063c0.089-0.137,0.161-0.37,0.281-0.733l0.112-0.322c0.249-0.699,0.443-1.152,0.938-1.939
		c0.022-0.031,0.498-0.81,1.162-1.881c0.587-0.492,1.296-1.056,1.807-1.4c0.775-0.525,2.339-1.321,2.339-1.321
		s-0.423-0.684-1.039-0.769c-0.014,0,0.79-0.815,1.457-1.104c0.76-0.333,1.732-0.512,1.732-0.512s-0.347-0.729-0.903-1.09
		c0.237-0.069,0.445-0.199,0.705-0.368c1.311-0.858,2.273-0.834,3.2-0.57c0.025-0.6-0.117-0.963-0.63-1.313
		c0.437-0.174,0.876-0.339,1.352-0.444c0.296,0.51,0.639,1.076,0.796,1.3c0.676,0.961,1.697,2.282,2.521,3.118
		c0.015,0.013,0.032,0.055,0.032,0.106c0,0.343-0.42,1.301-0.663,1.846l-0.21,0.473c0,0-0.826,1.949-1.067,2.527
		c-0.492,0.028-1.893,0.114-2.379,0.088c-0.927-0.06-1.621,0.143-2.058,0.566c-0.053,0.06-0.095,0.111-0.138,0.174
		c-0.346,0.041-0.765,0.183-0.963,0.449c-0.388,0.491-0.373,0.814-0.373,0.814s0.501-0.329,0.892-0.352
		c0.063-0.012,0.116-0.012,0.178,0c0.013,0.109,0.072,0.254,0.16,0.431c-0.099,0.065-0.177,0.139-0.235,0.232
		c-0.344,0.525-0.3,0.841-0.3,0.841s0.478-0.375,0.868-0.428c0.012-0.004,0.028-0.004,0.034-0.004
		c0.104,0.144,0.195,0.287,0.303,0.432c-0.041,0.039-0.066,0.079-0.1,0.129c-0.349,0.523-0.302,0.846-0.302,0.846
		s0.451-0.372,0.842-0.438c0.113,0.15,0.23,0.268,0.347,0.367c0.542,0.488,1.729,0.197,3.322-0.271l1.143-0.299
		c0.768-0.143,1.254-0.448,1.611-1.03l0.293-0.646c0.146-0.326,0.303-0.697,0.43-0.892c0.186-0.297,0.374-0.635,0.583-1.017
		c0.271-0.231,0.511-0.444,0.689-0.575c0.509-0.398,1.802-1.115,1.802-1.115s-0.253-0.55-0.782-0.609
		c-0.01,0,0.514-0.592,1.132-0.948c0.463-0.265,1.333-0.414,1.333-0.414s-0.607-0.502-1.076-0.709
		c-0.178-0.088-0.421-0.138-0.654-0.178c-0.022-0.263-0.159-0.563-0.416-0.95c-0.461-0.705,0.208-2.212,0.682-3.071
		c0.242,0.338,0.667,0.904,1.394,1.702c0,0,2.303,2.516,2.818,3.08c-0.097,0.405-0.429,1.666-0.937,3.06
		c-0.37,1.005-0.898,2.06-1.163,2.584c-0.56,0.032-1.818,0.09-2.277,0.072c-0.931-0.047-1.622,0.152-2.053,0.588
		c-0.072,0.065-0.123,0.144-0.176,0.211c-0.311,0.06-0.655,0.208-0.827,0.432c-0.388,0.511-0.364,0.83-0.364,0.83
		s0.376-0.358,0.895-0.371h0.071c0.02,0.104,0.084,0.26,0.165,0.425c-0.088,0.063-0.165,0.143-0.225,0.237
		c-0.343,0.527-0.298,0.842-0.298,0.842s0.465-0.373,0.858-0.436h0.042c0.118,0.18,0.252,0.371,0.385,0.55
		c0,0.005,0,0.005-0.004,0.005c-0.346,0.524-0.302,0.849-0.302,0.849s0.352-0.277,0.695-0.391c0.097,0.113,0.206,0.213,0.292,0.292
		c0.547,0.488,1.729,0.196,3.341-0.264l1.126-0.3c0.771-0.14,1.248-0.447,1.605-1.024c0.15-0.255,0.866-1.887,1.051-2.37
		c0.349-0.855,0.739-1.719,1.115-2.53c0.19-0.158,0.371-0.307,0.52-0.404c0.62-0.438,1.975-1.209,1.975-1.209
		s-0.268-0.585-0.787-0.621c-0.006,0,0.529-0.516,1.069-0.855c0.495-0.318,1.393-0.489,1.393-0.489s-0.646-0.513-1.105-0.702
		c-0.27-0.125-0.658-0.193-0.933-0.232c-0.079-0.379-0.267-0.514-0.563-0.663c-0.253-0.126-0.611-0.314-1.15-0.943
		c-0.692-0.815-0.793-2.378-0.793-3.935v-1.016l0.014-1.494c-0.054-1.76-0.31-2.984-0.553-3.784
		c2.283-0.217,6.484-0.677,8.202-2.783c0.513-0.632,0.774-1.369,0.774-2.173C131.204,102.447,131.153,102.078,131.053,101.691"/>
	<path fill="#F09100" d="M95.758,101.312c0.008,0.091,0.316,2.877,0.316,2.877s-1.504,0.823-1.57,0.867
		c0,0.082-0.016,0.958-0.016,1.024c0.065,0.052,0.342,0.257,0.622,0.377c0.501,0.217,1.022,0.087,1.029,0.083l0.13-0.03l-0.114,0.39
		l-0.048,0.009c-0.021,0-0.591,0.099-1.061-0.034c-0.411-0.128-0.626-0.286-0.674-0.334h-0.257
		c-0.052,0.041-0.276,0.206-0.682,0.334c-0.476,0.133-1.054,0.034-1.072,0.034l-0.046-0.009l-0.109-0.39l0.133,0.03
		c0,0,0.515,0.134,1.029-0.083c0.278-0.12,0.556-0.325,0.622-0.377c0-0.066-0.003-0.97-0.003-1.042
		c-0.063-0.043-1.591-1.119-1.591-1.119s2.694-0.007,2.832-0.007v-3.767l2.238-0.013l0.284-0.007
		C97.752,100.126,95.831,101.263,95.758,101.312 M90.923,100.102l2.075-0.017h0.078l-0.078,1.2L90.923,100.102z M98.922,99.973
		c0.365-0.257,1.222-0.966,0.756-1.827c-0.481-0.911-1.593-0.543-1.926-0.406c-0.049-0.04-2.522-1.114-2.556-1.103
		c0.033-0.012-0.96,1.144-0.96,1.144s-0.98-1.155-0.958-1.144c-0.03-0.012-2.501,1.063-2.551,1.103
		c-0.328-0.137-1.439-0.505-1.926,0.406c-0.465,0.861,0.396,1.57,0.755,1.827l-0.008,0.015c0,0-0.806,1.422-0.791,1.408
		c0.014-0.022,2.327,2.801,2.316,2.801c0.011-0.008,0,1.817-0.006,1.824c0,0,0.921,0.613,1,0.641
		c0.139,0.692,0.183,1.044,0.35,1.429c0.052,0.114,0.934,0.369,1.79,0.386h0.064c0.866-0.017,1.744-0.271,1.789-0.386
		c0.169-0.385,0.211-0.736,0.354-1.429c0.068-0.027,0.989-0.641,0.989-0.641v-1.824c0,0,2.302-2.823,2.319-2.801
		c0.013,0.014-0.793-1.408-0.793-1.408L98.922,99.973z"/>
	<path fill="#F09100" d="M114.627,120.784c0.308-0.285,0.457-0.434,0.457-0.635c0-0.171-0.112-0.383-0.335-0.729
		c-0.177-0.266-0.238-0.589-0.238-0.931c0-1.117,0.736-2.479,1.039-2.962c-0.083-0.113-0.201-0.266-0.35-0.461
		c-0.077-0.063-0.152-0.113-0.191-0.135c-0.191-0.146-0.685-0.552-0.992-0.953c-0.038-0.063-0.089-0.137-0.123-0.21
		c-0.639-0.011-2.12-0.065-3.648,0.401c0.464,0.274,0.587,0.616,0.601,1.079c-1.001-0.22-1.847-0.233-2.617-0.129
		c0.269,0.457,0.544,0.914,0.677,1.095c0.659,0.938,1.651,2.236,2.462,3.034c0.114,0.137,0.176,0.305,0.176,0.512
		c0,0.495-0.308,1.199-0.697,2.087l-0.205,0.48l-1.208,2.835l-0.182,0.008c-0.083,0.009-1.991,0.124-2.616,0.095
		c-0.683-0.035-1.197,0.077-1.525,0.331c0.045,0.123,0.072,0.303,0.02,0.463c-0.062,0.211-0.2,0.322-0.305,0.384
		c0.017,0.02,0.024,0.061,0.051,0.084c0.371-0.12,0.738-0.153,0.738-0.153s0.209,0.267,0.116,0.615
		c-0.062,0.258-0.184,0.394-0.276,0.462c0.023,0.031,0.047,0.077,0.078,0.104c0.418-0.165,0.883-0.212,0.883-0.212
		s0.217,0.334,0.147,0.683c-0.048,0.198-0.145,0.305-0.222,0.367c0.502,0.165,1.827-0.225,2.65-0.459l1.192-0.301
		c0.618-0.111,0.956-0.328,1.219-0.763l0.271-0.58c0.149-0.354,0.31-0.738,0.474-0.971c0.356-0.566,0.779-1.43,1.173-2.244
		C113.842,122.014,114.296,121.083,114.627,120.784"/>
	<path fill="#F09100" d="M91.843,113.435v0.032h0.012C91.855,113.456,91.843,113.456,91.843,113.435"/>
	<path fill="#F09100" d="M89.381,110.151c-0.365,0.553-1.044,0.816-1.91,0.921c0.161-0.854,0.018-1.459-0.299-2.141
		c-0.284-0.602-1.042-1.788-1.272-2.467c-0.063-0.196-0.128-0.362-0.183-0.528c-1.209-0.882-2.533-1.953-3.193-2.833
		c-0.164-0.202-0.4-0.956-0.867-2.486l-0.211-0.693l-0.11-0.384c-0.307-1.13-0.551-1.745-0.711-1.822
		c-0.125-0.033-0.225-0.04-0.326-0.052v0.011c0,0-0.054,0.339-0.636,0.312c-0.134-0.001-0.25-0.054-0.335-0.102
		c-0.063,0.032-0.098,0.063-0.146,0.101l-0.044,0.033c-0.033,0.029-0.058,0.055-0.081,0.077c0.337,0.304,0.578,0.694,0.578,0.694
		s-0.133,0.362-0.573,0.436c-0.315,0.059-0.56-0.163-0.56-0.163s0-0.115-0.047-0.274c-0.135,0.262-0.197,0.563-0.121,0.922
		c0.445,0.228,0.832,0.647,0.832,0.647s-0.011,0.331-0.472,0.567c-0.177,0.086-0.36,0.037-0.464-0.015
		c-0.063,0.331,0.133,0.815,0.483,1.156l1.251,1.028l0.033,0.062c0.392,0.896,0.857,1.736,1.13,2.043
		c0.1,0.12,0.475,0.751,1.51,2.536c1.373,2.362,3.45,5.929,3.983,6.523c0.215,0.192,1.613-0.132,3.017-0.697
		C89.142,112.185,89.575,111.333,89.381,110.151"/>
	<path fill="#F09100" d="M130.504,101.837c-0.257-0.926-0.691-1.304-1.346-1.66c-1.865-0.996-4.45-0.258-6.718,0.513
		c-1.929,0.654-2.46,0.828-4.467,1.136c-2.045,0.316-6.988,0.887-8.754-0.568c-0.356-0.287-0.661-0.852-0.693-1.275
		c-0.054-0.703,0.237-1.535,0.551-1.877c0.536-0.587,1.569-0.854,3.351-0.854c0,0,2.666,0.048,4.138,0.062l0.309-0.282l-0.3-0.318
		c-1.849-0.122-3.291-0.185-4.134-0.185c-2.16,0-3.368,0.322-4.077,1.091c-0.578,0.625-0.831,1.441-0.745,2.437
		c0.064,0.75,0.396,1.373,0.997,1.86c1.852,1.532,7.275,1.174,9.615,0.764c2.273-0.403,2.941-0.577,4.249-1.014l0.075-0.024
		c1.216-0.404,4.421-1.475,5.964-0.658c0.422,0.214,0.698,0.603,0.853,1.165c0.187,0.69,0.091,1.248-0.289,1.722
		c-1.373,1.679-5.773,1.918-8.145,2.045h-0.05l-0.042-0.009c-0.011-0.003-1.39-0.341-3.185-0.354
		c-1.143-0.003-2.111,0.07-3.133,0.15c-1.914,0.141-3.901,0.289-7.203-0.087c-1.464-0.16-2.848-0.434-3.928-0.746
		c-0.069,0.448-0.247,0.946-0.466,1.595c-0.221,0.674-0.99,1.861-1.269,2.469c-0.319,0.682-0.467,1.275-0.302,2.141
		c-0.872-0.104-1.541-0.368-1.904-0.921c-0.259,1.63,0.655,2.609-1.283,5.217c-0.188-0.79-1.277-1.034-1.18-1.933
		c-0.354,0.934,0.197,1.474-0.572,3.012c-0.19,0.389-1.277,1.988-1.868,2.466c-0.237,1.094-0.653,2.963-1.086,4.507
		c-0.592,2.098-1.07,3.044-1.305,3.424l-0.084,0.132l-0.149,0.015c-0.625,0.027-2.082,0.077-2.549,0.061
		c-0.64-0.033-1.146,0.072-1.479,0.282c0.025,0.158,0.042,0.381-0.049,0.551c-0.117,0.197-0.283,0.286-0.366,0.313
		c0.011,0.04,0.034,0.08,0.053,0.121c0.418-0.121,0.839-0.126,0.839-0.126s0.175,0.355-0.004,0.78
		c-0.078,0.177-0.18,0.253-0.25,0.296c0.035,0.054,0.078,0.12,0.12,0.173c0.438-0.191,0.96-0.256,0.96-0.256
		s0.199,0.268,0.069,0.809c-0.04,0.171-0.131,0.248-0.207,0.296c0.582,0.176,2.227-0.255,3.141-0.5l1.17-0.282
		c0.626-0.119,0.985-0.347,1.261-0.797c0.055-0.095,0.146-0.379,0.231-0.618l0.105-0.326c0.257-0.724,0.476-1.225,0.995-2.062
		c1.195-1.908,4.716-7.662,4.861-8.12v-0.093c0-0.306-0.149-0.98-0.266-1.412l-0.076-0.272c0,0,11.41-3.332,12.069-3.531
		c-0.231-0.396-0.698-1.204-0.698-1.204l0.41-0.38c0.034,0.025,0.919,0.668,1.401,1.142c0.416,0.422,0.825,1.083,1.259,1.769
		l0.22,0.355c0.492,0.775,0.975,1.347,0.975,1.358l0.016,0.013l0.016,0.021c0,0.005,0.381,0.679,1.577,2.006l3.018,3.309
		l-0.027,0.136c-0.011,0.021-0.365,1.569-0.984,3.271c-0.418,1.126-1.031,2.33-1.277,2.801l-0.078,0.139l-0.153,0.007
		c-0.591,0.033-1.985,0.119-2.506,0.084c-0.641-0.025-1.137,0.074-1.457,0.29c0.043,0.151,0.076,0.375-0.014,0.565
		c-0.092,0.201-0.236,0.306-0.326,0.361c0.021,0.014,0.037,0.05,0.052,0.077c0.374-0.118,0.729-0.158,0.729-0.158
		s0.196,0.303,0.133,0.675c-0.048,0.249-0.172,0.371-0.268,0.422c0.035,0.055,0.068,0.101,0.11,0.149
		c0.442-0.215,1.011-0.269,1.011-0.269s0.196,0.259,0.133,0.662c-0.031,0.194-0.159,0.313-0.265,0.392
		c0.594,0.068,1.761-0.274,2.521-0.486l1.183-0.309c0.605-0.111,0.956-0.324,1.221-0.77c0.118-0.189,0.769-1.687,1.019-2.28
		c0.721-1.759,1.769-3.971,2.454-5.164l0.385-0.596c0.216-0.339,0.417-0.63,0.389-0.828c-0.015-0.266-0.028-0.281-0.276-0.396
		c-0.286-0.138-0.72-0.368-1.322-1.088c-0.996-1.149-0.966-3.38-0.931-5.326v-1.471c-0.05-1.938-0.358-3.225-0.617-3.963
		l-0.114-0.347l0.363-0.03c2.11-0.191,6.508-0.585,8.159-2.598C130.625,103.848,130.796,102.891,130.504,101.837"/>
	<path fill="#FFFFFF" d="M119.123,79.151c0.244,0.332,0.452,0.681,0.617,1.067c-0.209,0.024-0.413,0.043-0.617,0.043
		c-0.209,0-0.412-0.016-0.61-0.043C118.663,79.832,118.873,79.483,119.123,79.151"/>
	<path fill="#F09100" d="M116.582,79.025c-0.453-0.346-0.835-0.781-1.114-1.282h0.021c0.584,0,1.135,0.115,1.641,0.336
		C116.919,78.379,116.745,78.698,116.582,79.025 M112.957,78.6c0.632,1.336,1.67,2.423,2.985,3.112c0,0.075-0.013,0.146-0.013,0.223
		c0,1.427,0.453,2.757,1.197,3.853c-0.517,0.226-1.064,0.347-1.638,0.347c-2.315,0-4.192-1.889-4.192-4.199
		C111.296,80.571,111.946,79.362,112.957,78.6 M122.75,77.743h0.017c-0.275,0.501-0.659,0.931-1.113,1.278
		c-0.164-0.331-0.334-0.648-0.533-0.942C121.634,77.858,122.179,77.743,122.75,77.743 M115.489,75.116
		c-0.178,0-0.351,0.013-0.528,0.03c0.263-2.08,2.012-3.652,4.162-3.652c2.121,0,3.896,1.603,4.161,3.659l-0.534-0.037
		c-1.296,0-2.533,0.365-3.62,1.047C118.067,75.493,116.817,75.116,115.489,75.116 M122.301,81.712
		c1.304-0.687,2.346-1.778,2.972-3.117c1.049,0.789,1.669,2.004,1.669,3.34c0,2.311-1.877,4.199-4.192,4.199
		c-0.579,0-1.139-0.121-1.641-0.34c0.785-1.136,1.201-2.457,1.201-3.859L122.301,81.712z M118.593,82.463l0.529,0.04
		c0.175,0,0.345-0.014,0.524-0.029c-0.068,0.553-0.249,1.081-0.524,1.559C118.855,83.558,118.662,83.035,118.593,82.463
		 M125.929,75.911c0-0.078,0.014-0.153,0.014-0.22c0-3.761-3.065-6.819-6.82-6.819c-3.761,0-6.82,3.059-6.82,6.819l0.003,0.22
		c-2.156,1.147-3.637,3.414-3.637,6.024c0,3.757,3.062,6.82,6.82,6.82c1.3,0,2.542-0.365,3.634-1.054
		c1.06,0.658,2.289,1.054,3.627,1.054c3.765,0,6.813-3.063,6.813-6.82C129.562,79.416,128.141,77.08,125.929,75.911"/>
	<path fill="#FFFFFF" d="M120.409,82.41c0.393-0.075,0.765-0.188,1.114-0.323c-0.017,1.222-0.397,2.377-1.101,3.372
		c-0.312-0.206-0.589-0.453-0.838-0.726C120.065,84.039,120.343,83.243,120.409,82.41"/>
	<path fill="#FFFFFF" d="M119.123,69.669c3.338,0,6.047,2.719,6.047,6.055c0,3.339-2.709,6.058-6.047,6.058l-0.559-0.041
		c0.016-0.368,0.082-0.732,0.197-1.081l0.361,0.02c2.737,0,4.95-2.223,4.95-4.955c0-2.73-2.213-4.956-4.95-4.956
		c-2.61,0-4.708,1.957-4.932,4.519c-0.385,0.075-0.76,0.187-1.124,0.318C113.137,72.321,115.823,69.669,119.123,69.669"/>
	<path fill="#FFFFFF" d="M122.75,75.917l0.551,0.045c-0.017,0.369-0.088,0.731-0.202,1.08l-0.349-0.023
		c-0.739,0-1.451,0.168-2.119,0.481c-0.252-0.295-0.526-0.567-0.837-0.813C120.697,76.183,121.708,75.917,122.75,75.917"/>
	<path fill="#FFFFFF" d="M115.489,88.026c-3.334,0-6.057-2.715-6.057-6.053c0-3.341,2.723-6.055,6.057-6.055
		c2.403,0,4.525,1.38,5.515,3.549c-0.322,0.17-0.68,0.289-1.044,0.365c-0.824-1.713-2.55-2.813-4.471-2.813
		c-2.733,0-4.96,2.223-4.96,4.953c0,2.731,2.227,4.953,4.96,4.953c0.739,0,1.462-0.17,2.121-0.477
		c0.266,0.292,0.536,0.556,0.838,0.802C117.552,87.755,116.532,88.026,115.489,88.026"/>
	<path fill="#FFFFFF" d="M114.641,77.861c0.37,0.771,0.95,1.445,1.655,1.926c-0.141,0.37-0.224,0.75-0.285,1.133
		c-1.054-0.63-1.896-1.565-2.399-2.686C113.939,78.066,114.282,77.938,114.641,77.861"/>
	<path fill="#FFFFFF" d="M122.75,88.026c-3.338,0-6.059-2.715-6.059-6.053c0-1.272,0.388-2.476,1.125-3.496
		c0.301,0.206,0.578,0.447,0.824,0.728c-0.558,0.818-0.856,1.771-0.856,2.769c0,2.731,2.227,4.953,4.966,4.953
		c2.732,0,4.959-2.222,4.959-4.953c0-1.646-0.798-3.136-2.135-4.063c0.12-0.364,0.213-0.745,0.277-1.135
		c1.807,1.081,2.95,3.071,2.95,5.197C128.801,85.311,126.088,88.026,122.75,88.026"/>
</g>
</svg>
